<svg id="visual" viewBox="0 0 960 640" width="960" height="640" xmlns="http://www.w3.org/2000/svg" xmlns:xlink="http://www.w3.org/1999/xlink" version="1.1"><path d="M0 146L26.7 150.8C53.3 155.7 106.7 165.3 160 182.2C213.3 199 266.7 223 320 232.5C373.3 242 426.7 237 480 225.5C533.3 214 586.7 196 640 195C693.3 194 746.7 210 800 205C853.3 200 906.7 174 933.3 161L960 148L960 641L933.3 641C906.7 641 853.3 641 800 641C746.7 641 693.3 641 640 641C586.7 641 533.3 641 480 641C426.7 641 373.3 641 320 641C266.7 641 213.3 641 160 641C106.7 641 53.3 641 26.7 641L0 641Z" fill="#444444"></path><path d="M0 213L26.7 222.2C53.3 231.3 106.7 249.7 160 254.3C213.3 259 266.7 250 320 244C373.3 238 426.7 235 480 245.7C533.3 256.3 586.7 280.7 640 288.8C693.3 297 746.7 289 800 288.2C853.3 287.3 906.7 293.7 933.3 296.8L960 300L960 641L933.3 641C906.7 641 853.3 641 800 641C746.7 641 693.3 641 640 641C586.7 641 533.3 641 480 641C426.7 641 373.3 641 320 641C266.7 641 213.3 641 160 641C106.7 641 53.3 641 26.7 641L0 641Z" fill="#3e3e3e"></path><path d="M0 361L26.7 356.7C53.3 352.3 106.7 343.7 160 333.3C213.3 323 266.7 311 320 307.3C373.3 303.7 426.7 308.3 480 304C533.3 299.7 586.7 286.3 640 280C693.3 273.7 746.7 274.3 800 285.2C853.3 296 906.7 317 933.3 327.5L960 338L960 641L933.3 641C906.7 641 853.3 641 800 641C746.7 641 693.3 641 640 641C586.7 641 533.3 641 480 641C426.7 641 373.3 641 320 641C266.7 641 213.3 641 160 641C106.7 641 53.3 641 26.7 641L0 641Z" fill="#393939"></path><path d="M0 394L26.7 392.7C53.3 391.3 106.7 388.7 160 387.8C213.3 387 266.7 388 320 389.3C373.3 390.7 426.7 392.3 480 392.7C533.3 393 586.7 392 640 394.7C693.3 397.3 746.7 403.7 800 403C853.3 402.3 906.7 394.7 933.3 390.8L960 387L960 641L933.3 641C906.7 641 853.3 641 800 641C746.7 641 693.3 641 640 641C586.7 641 533.3 641 480 641C426.7 641 373.3 641 320 641C266.7 641 213.3 641 160 641C106.7 641 53.3 641 26.7 641L0 641Z" fill="#333333"></path><path d="M0 445L26.7 447.3C53.3 449.7 106.7 454.3 160 455.7C213.3 457 266.7 455 320 451C373.3 447 426.7 441 480 432.8C533.3 424.7 586.7 414.3 640 417.5C693.3 420.7 746.7 437.3 800 444.3C853.3 451.3 906.7 448.7 933.3 447.3L960 446L960 641L933.3 641C906.7 641 853.3 641 800 641C746.7 641 693.3 641 640 641C586.7 641 533.3 641 480 641C426.7 641 373.3 641 320 641C266.7 641 213.3 641 160 641C106.7 641 53.3 641 26.7 641L0 641Z" fill="#2d2d2d"></path><path d="M0 484L26.7 490.3C53.3 496.7 106.7 509.3 160 511.2C213.3 513 266.7 504 320 496.8C373.3 489.7 426.7 484.3 480 487.2C533.3 490 586.7 501 640 504.3C693.3 507.7 746.7 503.3 800 500.2C853.3 497 906.7 495 933.3 494L960 493L960 641L933.3 641C906.7 641 853.3 641 800 641C746.7 641 693.3 641 640 641C586.7 641 533.3 641 480 641C426.7 641 373.3 641 320 641C266.7 641 213.3 641 160 641C106.7 641 53.3 641 26.7 641L0 641Z" fill="#282828"></path><path d="M0 560L26.7 555.8C53.3 551.7 106.7 543.3 160 543.5C213.3 543.7 266.7 552.3 320 553.8C373.3 555.3 426.7 549.7 480 551.3C533.3 553 586.7 562 640 565.5C693.3 569 746.7 567 800 567C853.3 567 906.7 569 933.3 570L960 571L960 641L933.3 641C906.7 641 853.3 641 800 641C746.7 641 693.3 641 640 641C586.7 641 533.3 641 480 641C426.7 641 373.3 641 320 641C266.7 641 213.3 641 160 641C106.7 641 53.3 641 26.7 641L0 641Z" fill="#222222"></path></svg>